<?xml version="1.0" encoding="UTF-8"?>
<svg id="Ebene_1" data-name="Ebene 1" xmlns="http://www.w3.org/2000/svg" viewBox="0 0 500 500">
  <defs>
    <style>
      .cls-1 {
        fill: none;
        stroke: #000;
        stroke-miterlimit: 10;
        stroke-width: .25px;
      }
    </style>
  </defs>
  <polyline class="cls-1" points="-14.37 351.59 -16.75 333.29 5.96 331.24"/>
  <polyline class="cls-1" points="-2.72 358.6 -5.87 338.98 18.2 336.18"/>
  <polyline class="cls-1" points="7.99 360.38 4.93 344.37 30.34 340.74"/>
  <path class="cls-1" d="m16.79,354.64l-1.15-5.19,12.09-2.05h.01s.01,0,.01-.01"/>
  <line class="cls-1" x1="90.28" y1="402.49" x2="86.49" y2="393.51"/>
  <polyline class="cls-1" points="122.91 363.33 114.91 366.43 114.9 366.44"/>
  <line class="cls-1" x1="101.91" y1="406.42" x2="93.23" y2="387.58"/>
  <line class="cls-1" x1="113.55" y1="410" x2="99.45" y2="381.9"/>
  <line class="cls-1" x1="133.8" y1="364.43" x2="104.85" y2="376.76"/>
  <polyline class="cls-1" points="125.2 413.22 108.22 382.08 144.52 365.16"/>
  <polyline class="cls-1" points="136.86 416.08 118.07 384.34 155.04 365.53"/>
  <polyline class="cls-1" points="148.54 418.57 127.83 386.34 165.37 365.52"/>
  <polyline class="cls-1" points="160.23 420.68 137.52 388.08 175.5 365.16"/>
  <polyline class="cls-1" points="171.94 422.41 147.12 389.58 185.4 364.44"/>
  <polyline class="cls-1" points="183.66 423.75 156.65 390.84 195.08 363.37"/>
  <polyline class="cls-1" points="195.39 424.69 166.1 391.86 204.52 361.97"/>
  <polyline class="cls-1" points="207.12 425.22 175.48 392.63 213.72 360.24"/>
  <polyline class="cls-1" points="218.85 425.32 184.79 393.17 222.65 358.18"/>
  <polyline class="cls-1" points="230.57 425 194.03 393.47 231.32 355.82"/>
  <polyline class="cls-1" points="240.99 424.23 201.92 393.53 238.43 353.16"/>
  <polyline class="cls-1" points="250.87 423 209.25 393.34 244.76 350.21"/>
  <polyline class="cls-1" points="260.57 421.31 216.39 392.9 250.69 346.98"/>
  <polyline class="cls-1" points="270.09 419.13 223.36 392.19 256.2 343.48"/>
  <polyline class="cls-1" points="279.41 416.47 230.14 391.21 261.31 339.72"/>
  <polyline class="cls-1" points="288.52 413.31 236.76 389.95 266.03 335.72"/>
  <polyline class="cls-1" points="297.4 409.65 243.21 388.38 270.36 331.47"/>
  <polyline class="cls-1" points="306.03 405.47 249.49 386.51 274.33 326.97"/>
  <polyline class="cls-1" points="314.42 400.78 255.63 384.3 277.94 322.24"/>
  <polyline class="cls-1" points="322.54 395.58 261.61 381.74 281.22 317.28"/>
  <polyline class="cls-1" points="330.39 389.86 267.44 378.82 284.2 312.07"/>
  <polyline class="cls-1" points="337.95 383.63 273.13 375.52 286.88 306.62"/>
  <polyline class="cls-1" points="345.22 376.89 278.67 371.82 289.29 300.91"/>
  <polyline class="cls-1" points="352.19 369.66 284.05 367.72 291.45 294.95"/>
  <polyline class="cls-1" points="358.86 361.31 289.28 362.56 293.39 288.1"/>
  <polyline class="cls-1" points="365.23 351.47 294.36 355.98 295.1 279.97"/>
  <polyline class="cls-1" points="372.61 341.15 300.6 348.94 297.94 271.53"/>
  <polyline class="cls-1" points="380.07 330.35 307.05 341.45 300.97 262.79"/>
  <polyline class="cls-1" points="386.03 321.78 311.81 334.38 304.24 254.4"/>
  <polyline class="cls-1" points="390.84 315.65 315.13 327.96 308.01 246.5"/>
  <polyline class="cls-1" points="395.75 309.49 318.54 321.44 311.94 238.49"/>
  <polyline class="cls-1" points="400.76 303.33 322.05 314.84 316.04 230.41"/>
  <polyline class="cls-1" points="405.88 297.16 325.66 308.16 320.33 222.24"/>
  <polyline class="cls-1" points="411.1 291 329.37 301.42 324.8 214.01"/>
  <polyline class="cls-1" points="416.43 284.88 333.18 294.62 329.45 205.73"/>
  <polyline class="cls-1" points="421.86 278.78 337.1 287.77 334.3 197.41"/>
  <polyline class="cls-1" points="427.39 272.74 341.12 280.89 339.34 189.07"/>
  <polyline class="cls-1" points="433.04 266.76 345.25 273.98 344.59 180.7"/>
  <polyline class="cls-1" points="439.06 260.86 349.77 267.05 350.32 172.33"/>
  <polyline class="cls-1" points="445.57 255.04 354.79 260.11 356.65 163.97"/>
  <polyline class="cls-1" points="452.24 249.33 359.97 253.18 363.25 155.63"/>
  <polyline class="cls-1" points="459.07 243.72 365.33 246.25 370.12 147.33"/>
  <polyline class="cls-1" points="466.06 238.24 370.87 239.34 377.29 139.07"/>
  <polyline class="cls-1" points="473.2 232.67 376.59 232.24 384.74 130.65"/>
  <polyline class="cls-1" points="480.51 226.65 382.5 224.56 392.5 121.69"/>
  <polyline class="cls-1" points="487.98 220.73 388.6 216.87 400.57 112.76"/>
  <polyline class="cls-1" points="495.61 214.92 394.89 209.18 408.95 103.88"/>
  <polyline class="cls-1" points="503.41 209.22 401.39 201.48 417.66 95.04"/>
  <polyline class="cls-1" points="511.36 203.66 408.1 193.78 426.7 86.27"/>
  <polyline class="cls-1" points="519.48 198.23 415.03 186.1 436.09 77.57"/>
  <polyline class="cls-1" points="527.76 192.95 422.18 178.44 445.82 68.97"/>
  <polyline class="cls-1" points="536.2 187.82 429.55 170.8 455.9 60.47"/>
  <polyline class="cls-1" points="544.8 182.85 437.16 163.19 466.34 52.09"/>
  <polyline class="cls-1" points="553.56 178.04 445 155.62 477.15 43.84"/>
  <polyline class="cls-1" points="562.47 173.42 453.1 148.09 488.33 35.74"/>
  <polyline class="cls-1" points="571.54 168.97 461.45 140.62 499.89 27.81"/>
  <polyline class="cls-1" points="580.77 164.7 470.05 133.21 511.82 20.05"/>
  <polyline class="cls-1" points="590.16 160.63 478.93 125.87 524.14 12.49"/>
  <polyline class="cls-1" points="599.7 156.75 488.08 118.61 536.84 5.14"/>
  <polyline class="cls-1" points="609.39 153.07 497.5 111.44 549.92 -1.98"/>
  <polyline class="cls-1" points="519.57 470.71 514.6 482.83 498.71 477.77"/>
  <polyline class="cls-1" points="510.36 459.42 505.23 472.32 488.64 467.45"/>
  <polyline class="cls-1" points="500.98 448.4 495.73 462.08 478.43 457.45"/>
  <polyline class="cls-1" points="491.43 437.66 486.1 452.14 468.1 447.77"/>
  <polyline class="cls-1" points="481.74 427.21 476.36 442.5 457.65 438.42"/>
  <polyline class="cls-1" points="471.91 417.05 466.51 433.16 447.1 429.41"/>
  <polyline class="cls-1" points="461.95 407.2 456.57 424.14 436.47 420.75"/>
  <polyline class="cls-1" points="451.86 397.66 446.54 415.44 425.76 412.44"/>
  <polyline class="cls-1" points="441.66 388.45 436.45 407.07 414.98 404.5"/>
  <polyline class="cls-1" points="431.35 379.56 426.29 399.03 404.14 396.94"/>
  <polyline class="cls-1" points="420.95 371.02 416.08 391.34 393.27 389.77"/>
  <polyline class="cls-1" points="410.45 362.82 405.83 384 382.37 382.99"/>
  <polyline class="cls-1" points="399.88 354.98 395.55 377.02 371.46 376.61"/>
  <polyline class="cls-1" points="389.23 347.38 385.25 370.28 360.54 370.53"/>
  <polyline class="cls-1" points="356.4 364.38 374.95 363.68 378.51 339.92"/>
  <polyline class="cls-1" points="361.54 357.65 364.65 357.44 365.27 352.47"/>
  <line class="cls-1" x1="271.67" y1="330.28" x2="263.29" y2="332.84"/>
  <polyline class="cls-1" points="290.1 297.83 290.1 297.82 289.77 293.8"/>
  <polyline class="cls-1" points="278.1 289.86 281.34 317.19 281.34 317.2"/>
  <polyline class="cls-1" points="278.33 321.9 278.33 321.91 252.57 330.88"/>
  <polyline class="cls-1" points="266.36 286.36 271.3 317.83 241.97 329.39"/>
  <polyline class="cls-1" points="254.54 283.31 260.88 315.33 231.5 328.37"/>
  <polyline class="cls-1" points="242.65 280.73 250.51 313.22 221.17 327.82"/>
  <polyline class="cls-1" points="230.69 278.64 240.18 311.5 211.01 327.74"/>
  <polyline class="cls-1" points="218.66 277.04 229.9 310.18 201.02 328.14"/>
  <polyline class="cls-1" points="206.56 275.97 219.68 309.26 191.23 329"/>
  <polyline class="cls-1" points="194.42 275.44 209.52 308.74 181.66 330.32"/>
  <polyline class="cls-1" points="182.23 275.47 199.42 308.62 172.31 332.1"/>
  <polyline class="cls-1" points="170.02 276.09 189.39 308.93 163.21 334.33"/>
  <polyline class="cls-1" points="157.81 277.32 179.44 309.66 154.36 337"/>
  <polyline class="cls-1" points="145.7 279.18 169.66 310.83 145.87 340.11"/>
  <polyline class="cls-1" points="135.49 281.69 161.8 312.46 139.49 343.65"/>
  <polyline class="cls-1" points="125.47 284.88 154.15 314.56 133.5 347.6"/>
  <polyline class="cls-1" points="115.67 288.77 146.69 317.16 127.88 351.98"/>
  <polyline class="cls-1" points="106.1 293.37 139.44 320.27 122.61 356.78"/>
  <polyline class="cls-1" points="96.8 298.69 132.38 323.93 117.67 362.01"/>
  <polyline class="cls-1" points="87.78 304.74 125.51 328.15 113.05 367.68"/>
  <polyline class="cls-1" points="79.92 310.58 119.12 333.07 107.92 373.61"/>
  <polyline class="cls-1" points="73.24 315.39 112.99 338.49 101.45 379.58"/>
  <polyline class="cls-1" points="66.25 320.4 106.54 344.14 94.64 385.77"/>
  <polyline class="cls-1" points="58.96 325.59 99.77 349.99 87.48 392.16"/>
  <polyline class="cls-1" points="51.39 330.94 92.71 356.03 79.99 398.72"/>
  <polyline class="cls-1" points="43.55 336.44 85.34 362.25 72.18 405.45"/>
  <polyline class="cls-1" points="35.43 342.06 77.68 368.61 64.05 412.31"/>
  <polyline class="cls-1" points="27.05 347.79 69.75 375.12 55.61 419.31"/>
  <polyline class="cls-1" points="18.43 353.61 61.54 381.74 46.87 426.41"/>
  <polyline class="cls-1" points="37.83 433.6 53.06 388.46 9.55 359.51"/>
  <polyline class="cls-1" points=".45 365.46 44.32 395.27 28.5 440.86"/>
  <polyline class="cls-1" points="-8.88 371.45 35.33 402.15 18.88 448.18"/>
  <polyline class="cls-1" points="-18.43 377.46 26.1 409.09 8.99 455.54"/>
  <polyline class="cls-1" points="-28.18 383.48 16.62 416.06 -1.17 462.91"/>
  <polyline class="cls-1" points="-38.13 389.48 6.92 423.04 -11.6 470.28"/>
  <line class="cls-1" x1="281.34" y1="317.2" x2="281.34" y2="317.19"/>
  <line class="cls-1" x1="290.1" y1="297.83" x2="290.1" y2="297.82"/>
  <line class="cls-1" x1="278.33" y1="321.91" x2="278.33" y2="321.9"/>
  <line class="cls-1" x1="114.91" y1="366.43" x2="114.9" y2="366.44"/>
  <path class="cls-1" d="m27.73,347.4h.01s.01,0,.01-.01"/>
</svg>